# xmcd
#
# Track frame offsets:
#	150
#	908
#	9625
#	24705
#	51032
#	68373
#	86989
#	103090
#	124586
#	160746
#	183660
#	195519
#	209607
#	229362
#	241395
#	253961
#
# Disc length: 3621 seconds
#
# Revision: 2
# Processed by: cddbd v1.5.2PL0 Copyright (c) Steve Scherf et al.
# Submitted via: audiograbber 1.83.01
#
DISCID=d60e2310
DTITLE=blues66 - BlUES66 LIVE
DYEAR=2010
DGENRE=Blues
TTITLE0=Announcement
TTITLE1=Blues Train
TTITLE2=On the road again
TTITLE3=Alabama 69
TTITLE4=Sicteen tons
TTITLE5=Room to move
TTITLE6=Ich lieb dich
TTITLE7=Live a little
TTITLE8=Muddy Water Blues - Hoochie Coochie Man
TTITLE9=This old night life
TTITLE10=Nokia Blues
TTITLE11=My Babe
TTITLE12=Bluesgeschichte
TTITLE13=Hit the road Jack
TTITLE14=High heel sneakers
TTITLE15=Hier mit euch
EXTD=
EXTT0=
EXTT1=
EXTT2=
EXTT3=
EXTT4=
EXTT5=
EXTT6=
EXTT7=
EXTT8=
EXTT9=
EXTT10=
EXTT11=
EXTT12=
EXTT13=
EXTT14=
EXTT15=
PLAYORDER=
